<?xml version="1.0" standalone="no"?>
<!DOCTYPE svg PUBLIC "-//W3C//DTD SVG 20010904//EN"
 "http://www.w3.org/TR/2001/REC-SVG-20010904/DTD/svg10.dtd">
<svg version="1.0" xmlns="http://www.w3.org/2000/svg"
 width="693.000000pt" height="1058.000000pt" viewBox="0 0 693.000000 1058.000000"
 preserveAspectRatio="xMidYMid meet">
<metadata>
Created by potrace 1.16, written by Peter Selinger 2001-2019
</metadata>
<g transform="translate(0.000000,1058.000000) scale(0.100000,-0.100000)"
fill="#000000" stroke="none">
<path d="M1356 10147 c-138 -237 -342 -592 -454 -787 -187 -324 -212 -363
-290 -445 -315 -335 -522 -754 -587 -1190 -22 -148 -22 -433 0 -580 149 -986
1009 -1807 2253 -2150 611 -168 1327 -201 1976 -90 613 105 1209 354 1661 692
825 618 1172 1487 945 2362 -89 342 -274 668 -550 968 -44 48 -100 121 -123
163 -36 62 -660 1145 -814 1413 -25 42 -50 77 -56 77 -7 0 -106 -165 -222
-366 -115 -202 -214 -373 -220 -380 -8 -11 -24 -9 -90 11 -462 145 -1033 214
-1542 187 -371 -21 -714 -76 -1009 -163 -76 -23 -146 -43 -154 -46 -15 -4
-131 189 -400 665 -29 50 -57 92 -64 92 -6 0 -123 -195 -260 -433z m864 -1552
c428 -91 748 -465 767 -897 14 -295 -86 -541 -303 -749 -83 -79 -132 -113
-242 -168 -535 -268 -1191 35 -1354 627 -18 64 -22 105 -22 242 0 151 2 172
27 253 38 122 87 222 155 314 230 309 607 455 972 378z m2795 14 c227 -28 425
-128 585 -295 127 -134 201 -266 247 -443 29 -111 35 -286 14 -386 -73 -352
-306 -627 -631 -745 -390 -143 -835 -9 -1092 329 -67 89 -143 246 -170 356
-31 123 -31 333 0 447 109 402 428 685 828 737 98 12 118 12 219 0z m-1045
-2544 c0 -3 -102 -182 -226 -398 -125 -215 -238 -412 -251 -436 l-25 -43 -73
123 c-39 68 -116 201 -170 294 -54 94 -136 235 -182 314 -45 79 -83 145 -83
147 0 2 227 4 505 4 278 0 505 -2 505 -5z"/>
<path d="M226 6153 c-155 -849 -137 -1775 50 -2581 109 -470 231 -816 434
-1227 134 -271 237 -448 264 -453 20 -4 44 20 145 153 399 523 691 1487 786
2588 23 274 28 249 -57 282 -40 15 -141 60 -224 100 -590 282 -1025 663 -1313
1153 -24 39 -49 72 -56 72 -8 0 -19 -31 -29 -87z"/>
<path d="M6606 6139 c-201 -345 -539 -679 -943 -932 -125 -79 -440 -238 -567
-288 l-87 -34 6 -90 c78 -1113 341 -2071 730 -2655 80 -120 190 -250 213 -250
11 0 47 51 108 158 394 678 631 1447 720 2332 21 209 29 744 15 980 -17 292
-76 766 -107 863 -11 33 -30 15 -88 -84z"/>
<path d="M2041 4663 c-64 -874 -267 -1701 -556 -2273 -115 -227 -214 -377
-359 -542 -36 -41 -66 -83 -66 -93 0 -16 78 -125 190 -267 25 -31 52 -57 61
-57 9 -1 36 6 59 14 79 28 152 15 225 -40 25 -19 52 -35 60 -35 8 0 35 15 59
34 57 44 106 59 165 54 51 -5 131 -41 158 -70 23 -25 36 -23 93 16 65 45 111
59 169 54 171 -17 298 -207 357 -533 12 -71 18 -154 18 -284 l1 -184 55 -19
c185 -64 488 -108 738 -108 248 0 467 31 697 98 93 27 100 31 98 53 -1 13 -3
94 -3 179 -3 518 212 876 471 785 24 -9 61 -29 81 -45 20 -17 42 -30 48 -30 6
0 33 16 61 35 107 74 196 73 302 -1 26 -19 52 -34 57 -34 5 0 31 15 57 34 82
57 158 71 230 41 19 -8 43 -15 52 -15 23 0 261 303 261 332 0 6 -30 42 -66 80
-131 140 -252 322 -370 558 -293 588 -483 1373 -554 2289 -5 74 -12 136 -15
139 -3 3 -60 -11 -127 -31 -257 -77 -516 -130 -788 -163 -186 -22 -620 -30
-818 -14 -315 24 -663 88 -933 171 -71 21 -134 39 -142 39 -10 0 -16 -38 -26
-167z"/>
<path d="M1380 1312 c-70 -38 -141 -180 -175 -352 -21 -107 -30 -365 -16 -480
37 -304 131 -480 256 -480 75 0 133 58 186 186 l23 54 30 -72 c19 -46 46 -89
76 -120 43 -44 50 -48 94 -48 83 0 135 47 192 175 25 58 27 59 37 35 38 -89
66 -136 104 -170 37 -35 48 -40 91 -40 73 0 118 39 170 145 63 128 92 292 92
515 0 369 -96 639 -235 666 -48 9 -78 -1 -121 -39 -35 -30 -104 -154 -104
-186 0 -24 -15 -1 -40 62 -12 32 -42 80 -67 107 -36 40 -52 50 -87 55 -87 13
-155 -44 -206 -175 -16 -41 -29 -68 -30 -59 0 36 -82 179 -116 205 -45 35
-107 41 -154 16z"/>
<path d="M4592 1313 c-86 -42 -158 -209 -188 -437 -20 -151 -13 -397 15 -531
25 -122 74 -235 125 -291 37 -41 47 -47 92 -51 89 -9 134 29 198 168 19 41 35
67 35 59 2 -37 70 -157 109 -192 36 -32 49 -38 88 -38 29 0 59 8 79 20 38 23
86 94 112 163 9 26 20 47 23 47 3 0 14 -21 23 -47 93 -250 280 -242 377 15 51
133 64 232 64 467 0 186 -3 235 -21 315 -55 252 -154 377 -272 341 -52 -15
-113 -85 -143 -162 -13 -32 -26 -59 -29 -59 -3 0 -17 28 -30 62 -14 36 -43 82
-70 112 -44 48 -48 50 -102 50 -41 1 -63 -4 -84 -20 -39 -29 -79 -88 -108
-159 -19 -48 -25 -56 -31 -40 -64 186 -157 260 -262 208z"/>
</g>
</svg>
